<svg xmlns="http://www.w3.org/2000/svg" xmlns:xlink="http://www.w3.org/1999/xlink" fill="none" version="1.1" width="21" height="21" viewBox="0 0 21 21"><defs><clipPath id="master_svg0_0_1662"><rect x="0" y="0" width="21" height="21" rx="0"/></clipPath></defs><g clip-path="url(#master_svg0_0_1662)"><g><g></g><g><path d="M10.5,1.75C15.3326,1.75,19.25,5.66738,19.25,10.5C19.25,15.3326,15.3326,19.25,10.5,19.25C5.66738,19.25,1.75,15.3326,1.75,10.5C1.75,5.66738,5.66738,1.75,10.5,1.75ZM10.5,3.5C8.64348,3.5,6.86301,4.2375,5.55025,5.55025C4.2375,6.86301,3.5,8.64348,3.5,10.5C3.5,12.3565,4.2375,14.137,5.55025,15.4497C6.86301,16.7625,8.64348,17.5,10.5,17.5C12.3565,17.5,14.137,16.7625,15.4497,15.4497C16.7625,14.137,17.5,12.3565,17.5,10.5C17.5,8.64348,16.7625,6.86301,15.4497,5.55025C14.137,4.2375,12.3565,3.5,10.5,3.5ZM10.5,5.25C10.71432,5.250030000000001,10.92117,5.32871,11.08133,5.4711300000000005C11.24148,5.61354,11.3438,5.80978,11.36888,6.02262C11.36888,6.02262,11.375,6.125,11.375,6.125C11.375,6.125,11.375,10.13775,11.375,10.13775C11.375,10.13775,13.7436,12.5064,13.7436,12.5064C13.9006,12.6638,13.9917,12.8751,13.9984,13.0973C14.0052,13.3195,13.9272,13.536,13.7802,13.7027C13.6331,13.8695,13.4281,13.974,13.2068,13.9951C12.9855,14.0162,12.7645,13.9522,12.5886,13.8162C12.5886,13.8162,12.5064,13.7436,12.5064,13.7436C12.5064,13.7436,9.88138,11.11862,9.88138,11.11862C9.74538,10.98252,9.65804,10.80538,9.63287,10.61462C9.63287,10.61462,9.625,10.5,9.625,10.5C9.625,10.5,9.625,6.125,9.625,6.125C9.625,5.89294,9.71719,5.67038,9.88128,5.50628C10.04538,5.34219,10.26794,5.25,10.5,5.25Z" fill="#000000" fill-opacity="1"/></g></g></g></svg>