<svg xmlns="http://www.w3.org/2000/svg" xmlns:xlink="http://www.w3.org/1999/xlink" fill="none" version="1.1" width="21" height="21" viewBox="0 0 21 21"><defs><clipPath id="master_svg0_0_1666"><rect x="0" y="0" width="21" height="21" rx="0"/></clipPath></defs><g clip-path="url(#master_svg0_0_1666)"><g><path d="M15.75,7.875C15.75,6.90987,14.9651,6.125,14,6.125C14,6.125,12.7452,6.125,12.7452,6.125C12.7452,6.125,10.6295,2.599625,10.6295,2.599625C10.47345,2.341198,10.25351,2.12729,9.99085,1.9784869999999999C9.72818,1.829684,9.43163,1.750997266,9.12975,1.75C9.12975,1.75,4.375,1.75,4.375,1.75C4.375,1.75,4.375,3.5,4.375,3.5C4.375,3.5,9.12975,3.5,9.12975,3.5C9.12975,3.5,10.70475,6.125,10.70475,6.125C10.70475,6.125,3.5,6.125,3.5,6.125C2.534875,6.125,1.75,6.90987,1.75,7.875C1.75,7.875,1.75,15.75,1.75,15.75C1.75,16.7151,2.534875,17.5,3.5,17.5C3.5,17.5,14,17.5,14,17.5C14.9651,17.5,15.75,16.7151,15.75,15.75C15.75,15.75,15.75,13.125,15.75,13.125C15.75,13.125,19.25,14.875,19.25,14.875C19.25,14.875,19.25,8.75,19.25,8.75C19.25,8.75,15.75,10.5,15.75,10.5C15.75,10.5,15.75,7.875,15.75,7.875ZM14.0018,15.75C14.0018,15.75,3.5,15.75,3.5,15.75C3.5,15.75,3.5,7.875,3.5,7.875C3.5,7.875,14,7.875,14,7.875C14,7.875,14.0009,11.375,14.0009,11.375C14.0009,11.375,14,12.25,14,12.25C14,12.25,14.0009,12.2509,14.0009,12.2509C14.0009,12.2509,14.0018,15.75,14.0018,15.75Z" fill="#000000" fill-opacity="1"/></g><g><path d="M5.25,12.25C5.25,12.25,10.5,12.25,10.5,12.25C10.5,12.25,10.5,14,10.5,14C10.5,14,5.25,14,5.25,14C5.25,14,5.25,12.25,5.25,12.25Z" fill="#000000" fill-opacity="1"/></g></g></svg>